<mxfile host="app.diagrams.net" modified="2023-11-20T11:00:38.802Z" agent="Mozilla/5.0 (Windows NT 10.0; Win64; x64) AppleWebKit/537.36 (KHTML, like Gecko) Chrome/119.0.0.0 Safari/537.36" etag="cUIjZnyV3xC7UBeiI0ru" version="22.0.0" type="google">
  <diagram name="Page-1" id="2YBvvXClWsGukQMizWep">
    <mxGraphModel grid="1" page="1" gridSize="10" guides="1" tooltips="1" connect="1" arrows="1" fold="1" pageScale="1" pageWidth="850" pageHeight="1100" math="0" shadow="0">
      <root>
        <mxCell id="0" />
        <mxCell id="1" parent="0" />
        <mxCell id="aM9ryv3xv72pqoxQDRHE-1" value="Client 1" style="shape=umlLifeline;perimeter=lifelinePerimeter;whiteSpace=wrap;html=1;container=0;dropTarget=0;collapsible=0;recursiveResize=0;outlineConnect=0;portConstraint=eastwest;newEdgeStyle={&quot;edgeStyle&quot;:&quot;elbowEdgeStyle&quot;,&quot;elbow&quot;:&quot;vertical&quot;,&quot;curved&quot;:0,&quot;rounded&quot;:0};" vertex="1" parent="1">
          <mxGeometry x="40" y="40" width="100" height="1060" as="geometry" />
        </mxCell>
        <mxCell id="aM9ryv3xv72pqoxQDRHE-2" value="" style="html=1;points=[];perimeter=orthogonalPerimeter;outlineConnect=0;targetShapes=umlLifeline;portConstraint=eastwest;newEdgeStyle={&quot;edgeStyle&quot;:&quot;elbowEdgeStyle&quot;,&quot;elbow&quot;:&quot;vertical&quot;,&quot;curved&quot;:0,&quot;rounded&quot;:0};" vertex="1" parent="aM9ryv3xv72pqoxQDRHE-1">
          <mxGeometry x="45" y="70" width="10" height="970" as="geometry" />
        </mxCell>
        <mxCell id="aM9ryv3xv72pqoxQDRHE-3" value="User" style="html=1;verticalAlign=bottom;startArrow=oval;endArrow=block;startSize=8;edgeStyle=elbowEdgeStyle;elbow=vertical;curved=0;rounded=0;" edge="1" parent="aM9ryv3xv72pqoxQDRHE-1" target="aM9ryv3xv72pqoxQDRHE-2">
          <mxGeometry relative="1" as="geometry">
            <mxPoint x="-15" y="70" as="sourcePoint" />
          </mxGeometry>
        </mxCell>
        <mxCell id="aM9ryv3xv72pqoxQDRHE-5" value="ThreadGioco" style="shape=umlLifeline;perimeter=lifelinePerimeter;whiteSpace=wrap;html=1;container=0;dropTarget=0;collapsible=0;recursiveResize=0;outlineConnect=0;portConstraint=eastwest;newEdgeStyle={&quot;edgeStyle&quot;:&quot;elbowEdgeStyle&quot;,&quot;elbow&quot;:&quot;vertical&quot;,&quot;curved&quot;:0,&quot;rounded&quot;:0};" vertex="1" parent="1">
          <mxGeometry x="293" y="40" width="100" height="1060" as="geometry" />
        </mxCell>
        <mxCell id="aM9ryv3xv72pqoxQDRHE-6" value="" style="html=1;points=[];perimeter=orthogonalPerimeter;outlineConnect=0;targetShapes=umlLifeline;portConstraint=eastwest;newEdgeStyle={&quot;edgeStyle&quot;:&quot;elbowEdgeStyle&quot;,&quot;elbow&quot;:&quot;vertical&quot;,&quot;curved&quot;:0,&quot;rounded&quot;:0};" vertex="1" parent="aM9ryv3xv72pqoxQDRHE-5">
          <mxGeometry x="45" y="140" width="10" height="900" as="geometry" />
        </mxCell>
        <mxCell id="aM9ryv3xv72pqoxQDRHE-7" value="Create connection" style="html=1;verticalAlign=bottom;endArrow=block;edgeStyle=elbowEdgeStyle;elbow=vertical;curved=0;rounded=0;" edge="1" parent="1" source="aM9ryv3xv72pqoxQDRHE-2" target="AS-EcxfXXqusSmhKvg41-5">
          <mxGeometry relative="1" as="geometry">
            <mxPoint x="195" y="130" as="sourcePoint" />
            <Array as="points">
              <mxPoint x="180" y="120" />
            </Array>
          </mxGeometry>
        </mxCell>
        <mxCell id="aM9ryv3xv72pqoxQDRHE-9" value="Accept/Error" style="html=1;verticalAlign=bottom;endArrow=block;edgeStyle=elbowEdgeStyle;elbow=vertical;curved=0;rounded=0;" edge="1" parent="1" source="AS-EcxfXXqusSmhKvg41-5" target="aM9ryv3xv72pqoxQDRHE-2">
          <mxGeometry relative="1" as="geometry">
            <mxPoint x="175" y="160" as="sourcePoint" />
            <Array as="points">
              <mxPoint x="190" y="160" />
            </Array>
            <mxPoint x="100" y="160" as="targetPoint" />
          </mxGeometry>
        </mxCell>
        <mxCell id="AS-EcxfXXqusSmhKvg41-1" value="Draw" style="html=1;verticalAlign=bottom;endArrow=block;edgeStyle=elbowEdgeStyle;elbow=horizontal;curved=0;rounded=0;" edge="1" parent="1" target="aM9ryv3xv72pqoxQDRHE-6">
          <mxGeometry relative="1" as="geometry">
            <mxPoint x="95" y="279.5" as="sourcePoint" />
            <Array as="points">
              <mxPoint x="175" y="279.5" />
            </Array>
            <mxPoint x="330" y="280" as="targetPoint" />
          </mxGeometry>
        </mxCell>
        <mxCell id="AS-EcxfXXqusSmhKvg41-2" value="Game start" style="html=1;verticalAlign=bottom;endArrow=block;edgeStyle=elbowEdgeStyle;elbow=vertical;curved=0;rounded=0;" edge="1" parent="1">
          <mxGeometry relative="1" as="geometry">
            <mxPoint x="338" y="240" as="sourcePoint" />
            <Array as="points">
              <mxPoint x="220" y="240" />
              <mxPoint x="195" y="240" />
            </Array>
            <mxPoint x="95" y="240" as="targetPoint" />
          </mxGeometry>
        </mxCell>
        <mxCell id="AS-EcxfXXqusSmhKvg41-5" value="Server" style="shape=umlLifeline;perimeter=lifelinePerimeter;whiteSpace=wrap;html=1;container=0;dropTarget=0;collapsible=0;recursiveResize=0;outlineConnect=0;portConstraint=eastwest;newEdgeStyle={&quot;edgeStyle&quot;:&quot;elbowEdgeStyle&quot;,&quot;elbow&quot;:&quot;vertical&quot;,&quot;curved&quot;:0,&quot;rounded&quot;:0};" vertex="1" parent="1">
          <mxGeometry x="400" y="40" width="100" height="1060" as="geometry" />
        </mxCell>
        <mxCell id="AS-EcxfXXqusSmhKvg41-6" value="" style="html=1;points=[];perimeter=orthogonalPerimeter;outlineConnect=0;targetShapes=umlLifeline;portConstraint=eastwest;newEdgeStyle={&quot;edgeStyle&quot;:&quot;elbowEdgeStyle&quot;,&quot;elbow&quot;:&quot;vertical&quot;,&quot;curved&quot;:0,&quot;rounded&quot;:0};" vertex="1" parent="AS-EcxfXXqusSmhKvg41-5">
          <mxGeometry x="45" y="80" width="10" height="960" as="geometry" />
        </mxCell>
        <mxCell id="AS-EcxfXXqusSmhKvg41-8" value="Request executed&amp;nbsp; /&amp;nbsp; Error" style="html=1;verticalAlign=bottom;endArrow=block;edgeStyle=elbowEdgeStyle;elbow=vertical;curved=0;rounded=0;" edge="1" parent="1">
          <mxGeometry relative="1" as="geometry">
            <mxPoint x="338" y="320" as="sourcePoint" />
            <Array as="points">
              <mxPoint x="190" y="320" />
            </Array>
            <mxPoint x="95" y="320" as="targetPoint" />
          </mxGeometry>
        </mxCell>
        <mxCell id="AS-EcxfXXqusSmhKvg41-9" value="&lt;b&gt;&lt;font style=&quot;font-size: 15px;&quot;&gt;SERVER&lt;/font&gt;&lt;/b&gt;" style="rounded=0;whiteSpace=wrap;html=1;" vertex="1" parent="1">
          <mxGeometry x="293" width="207" height="40" as="geometry" />
        </mxCell>
        <mxCell id="AS-EcxfXXqusSmhKvg41-10" value="Client 2" style="shape=umlLifeline;perimeter=lifelinePerimeter;whiteSpace=wrap;html=1;container=0;dropTarget=0;collapsible=0;recursiveResize=0;outlineConnect=0;portConstraint=eastwest;newEdgeStyle={&quot;edgeStyle&quot;:&quot;elbowEdgeStyle&quot;,&quot;elbow&quot;:&quot;vertical&quot;,&quot;curved&quot;:0,&quot;rounded&quot;:0};" vertex="1" parent="1">
          <mxGeometry x="660" y="40" width="100" height="1060" as="geometry" />
        </mxCell>
        <mxCell id="AS-EcxfXXqusSmhKvg41-11" value="" style="html=1;points=[];perimeter=orthogonalPerimeter;outlineConnect=0;targetShapes=umlLifeline;portConstraint=eastwest;newEdgeStyle={&quot;edgeStyle&quot;:&quot;elbowEdgeStyle&quot;,&quot;elbow&quot;:&quot;vertical&quot;,&quot;curved&quot;:0,&quot;rounded&quot;:0};" vertex="1" parent="AS-EcxfXXqusSmhKvg41-10">
          <mxGeometry x="45" y="70" width="10" height="970" as="geometry" />
        </mxCell>
        <mxCell id="AS-EcxfXXqusSmhKvg41-12" value="User2" style="html=1;verticalAlign=bottom;startArrow=oval;endArrow=block;startSize=8;edgeStyle=elbowEdgeStyle;elbow=vertical;curved=0;rounded=0;" edge="1" parent="1" target="AS-EcxfXXqusSmhKvg41-10">
          <mxGeometry relative="1" as="geometry">
            <mxPoint x="780.5" y="110" as="sourcePoint" />
            <mxPoint x="730" y="110" as="targetPoint" />
            <Array as="points">
              <mxPoint x="780.5" y="110" />
            </Array>
          </mxGeometry>
        </mxCell>
        <mxCell id="AS-EcxfXXqusSmhKvg41-14" value="" style="endArrow=classic;html=1;rounded=0;" edge="1" parent="1">
          <mxGeometry width="50" height="50" relative="1" as="geometry">
            <mxPoint x="702.5" y="140" as="sourcePoint" />
            <mxPoint x="457.5" y="140" as="targetPoint" />
          </mxGeometry>
        </mxCell>
        <mxCell id="AS-EcxfXXqusSmhKvg41-16" value="Create connection" style="text;html=1;align=center;verticalAlign=middle;resizable=0;points=[];autosize=1;strokeColor=none;fillColor=none;" vertex="1" parent="1">
          <mxGeometry x="520" y="113" width="120" height="30" as="geometry" />
        </mxCell>
        <mxCell id="AS-EcxfXXqusSmhKvg41-17" value="" style="endArrow=classic;html=1;rounded=0;" edge="1" parent="1">
          <mxGeometry width="50" height="50" relative="1" as="geometry">
            <mxPoint x="456" y="180" as="sourcePoint" />
            <mxPoint x="705.5" y="180" as="targetPoint" />
          </mxGeometry>
        </mxCell>
        <mxCell id="AS-EcxfXXqusSmhKvg41-18" value="Accept/Error" style="text;html=1;align=center;verticalAlign=middle;resizable=0;points=[];autosize=1;strokeColor=none;fillColor=none;" vertex="1" parent="1">
          <mxGeometry x="525" y="153" width="90" height="30" as="geometry" />
        </mxCell>
        <mxCell id="AS-EcxfXXqusSmhKvg41-19" value="" style="endArrow=classic;html=1;rounded=0;" edge="1" parent="1">
          <mxGeometry width="50" height="50" relative="1" as="geometry">
            <mxPoint x="441.5" y="200.5" as="sourcePoint" />
            <mxPoint x="351.5" y="200" as="targetPoint" />
          </mxGeometry>
        </mxCell>
        <mxCell id="AS-EcxfXXqusSmhKvg41-20" value="Start thread" style="text;html=1;align=center;verticalAlign=middle;resizable=0;points=[];autosize=1;strokeColor=none;fillColor=none;" vertex="1" parent="1">
          <mxGeometry x="357" y="172" width="90" height="30" as="geometry" />
        </mxCell>
        <mxCell id="AS-EcxfXXqusSmhKvg41-24" value="" style="endArrow=classic;html=1;rounded=0;" edge="1" parent="1">
          <mxGeometry width="50" height="50" relative="1" as="geometry">
            <mxPoint x="350" y="240" as="sourcePoint" />
            <mxPoint x="705.5" y="240" as="targetPoint" />
          </mxGeometry>
        </mxCell>
        <mxCell id="AS-EcxfXXqusSmhKvg41-25" value="Game start" style="text;html=1;align=center;verticalAlign=middle;resizable=0;points=[];autosize=1;strokeColor=none;fillColor=none;" vertex="1" parent="1">
          <mxGeometry x="480" y="210" width="80" height="30" as="geometry" />
        </mxCell>
        <mxCell id="AS-EcxfXXqusSmhKvg41-26" value="Request executed&amp;nbsp; /&amp;nbsp; Error" style="html=1;verticalAlign=bottom;endArrow=block;edgeStyle=elbowEdgeStyle;elbow=horizontal;curved=0;rounded=0;" edge="1" parent="1">
          <mxGeometry relative="1" as="geometry">
            <mxPoint x="352" y="720" as="sourcePoint" />
            <Array as="points">
              <mxPoint x="432" y="720" />
            </Array>
            <mxPoint x="702" y="720" as="targetPoint" />
          </mxGeometry>
        </mxCell>
        <mxCell id="AS-EcxfXXqusSmhKvg41-27" value="Draw" style="html=1;verticalAlign=bottom;endArrow=block;edgeStyle=elbowEdgeStyle;elbow=vertical;curved=0;rounded=0;" edge="1" parent="1">
          <mxGeometry relative="1" as="geometry">
            <mxPoint x="706" y="680" as="sourcePoint" />
            <Array as="points">
              <mxPoint x="558" y="680" />
            </Array>
            <mxPoint x="347" y="680" as="targetPoint" />
          </mxGeometry>
        </mxCell>
        <mxCell id="AS-EcxfXXqusSmhKvg41-29" value="Play cards" style="html=1;verticalAlign=bottom;endArrow=block;edgeStyle=elbowEdgeStyle;elbow=horizontal;curved=0;rounded=0;" edge="1" parent="1">
          <mxGeometry relative="1" as="geometry">
            <mxPoint x="97" y="360" as="sourcePoint" />
            <Array as="points">
              <mxPoint x="177" y="360" />
            </Array>
            <mxPoint x="340" y="360.5" as="targetPoint" />
          </mxGeometry>
        </mxCell>
        <mxCell id="AS-EcxfXXqusSmhKvg41-30" value="Request executed&amp;nbsp; /&amp;nbsp; Error" style="html=1;verticalAlign=bottom;endArrow=block;edgeStyle=elbowEdgeStyle;elbow=vertical;curved=0;rounded=0;" edge="1" parent="1">
          <mxGeometry relative="1" as="geometry">
            <mxPoint x="337" y="400" as="sourcePoint" />
            <Array as="points">
              <mxPoint x="189" y="400" />
            </Array>
            <mxPoint x="94" y="400" as="targetPoint" />
          </mxGeometry>
        </mxCell>
        <mxCell id="AS-EcxfXXqusSmhKvg41-31" value="Add card" style="html=1;verticalAlign=bottom;endArrow=block;edgeStyle=elbowEdgeStyle;elbow=horizontal;curved=0;rounded=0;" edge="1" parent="1">
          <mxGeometry relative="1" as="geometry">
            <mxPoint x="95" y="440" as="sourcePoint" />
            <Array as="points">
              <mxPoint x="175" y="440" />
            </Array>
            <mxPoint x="338" y="440.5" as="targetPoint" />
          </mxGeometry>
        </mxCell>
        <mxCell id="AS-EcxfXXqusSmhKvg41-32" value="Request executed&amp;nbsp; /&amp;nbsp; Error" style="html=1;verticalAlign=bottom;endArrow=block;edgeStyle=elbowEdgeStyle;elbow=vertical;curved=0;rounded=0;" edge="1" parent="1">
          <mxGeometry relative="1" as="geometry">
            <mxPoint x="337" y="480" as="sourcePoint" />
            <Array as="points">
              <mxPoint x="189" y="480" />
            </Array>
            <mxPoint x="94" y="480" as="targetPoint" />
          </mxGeometry>
        </mxCell>
        <mxCell id="AS-EcxfXXqusSmhKvg41-33" value="Pass turn" style="html=1;verticalAlign=bottom;endArrow=block;edgeStyle=elbowEdgeStyle;elbow=horizontal;curved=0;rounded=0;" edge="1" parent="1">
          <mxGeometry relative="1" as="geometry">
            <mxPoint x="97" y="520" as="sourcePoint" />
            <Array as="points">
              <mxPoint x="177" y="520" />
            </Array>
            <mxPoint x="340" y="520.5" as="targetPoint" />
          </mxGeometry>
        </mxCell>
        <mxCell id="AS-EcxfXXqusSmhKvg41-34" value="Request executed&amp;nbsp; /&amp;nbsp; Error" style="html=1;verticalAlign=bottom;endArrow=block;edgeStyle=elbowEdgeStyle;elbow=vertical;curved=0;rounded=0;" edge="1" parent="1">
          <mxGeometry relative="1" as="geometry">
            <mxPoint x="337" y="559.5" as="sourcePoint" />
            <Array as="points">
              <mxPoint x="189" y="559.5" />
            </Array>
            <mxPoint x="94" y="559.5" as="targetPoint" />
          </mxGeometry>
        </mxCell>
        <mxCell id="AS-EcxfXXqusSmhKvg41-35" value="Play cards" style="html=1;verticalAlign=bottom;endArrow=block;edgeStyle=elbowEdgeStyle;elbow=vertical;curved=0;rounded=0;" edge="1" parent="1">
          <mxGeometry relative="1" as="geometry">
            <mxPoint x="706" y="760" as="sourcePoint" />
            <Array as="points">
              <mxPoint x="558" y="760" />
            </Array>
            <mxPoint x="347" y="760" as="targetPoint" />
          </mxGeometry>
        </mxCell>
        <mxCell id="AS-EcxfXXqusSmhKvg41-36" value="Request executed&amp;nbsp; /&amp;nbsp; Error" style="html=1;verticalAlign=bottom;endArrow=block;edgeStyle=elbowEdgeStyle;elbow=horizontal;curved=0;rounded=0;" edge="1" parent="1">
          <mxGeometry relative="1" as="geometry">
            <mxPoint x="352" y="800" as="sourcePoint" />
            <Array as="points">
              <mxPoint x="432" y="800" />
            </Array>
            <mxPoint x="702" y="800" as="targetPoint" />
          </mxGeometry>
        </mxCell>
        <mxCell id="AS-EcxfXXqusSmhKvg41-37" value="Disconnect" style="html=1;verticalAlign=bottom;endArrow=block;edgeStyle=elbowEdgeStyle;elbow=horizontal;curved=0;rounded=0;" edge="1" parent="1">
          <mxGeometry relative="1" as="geometry">
            <mxPoint x="96" y="600" as="sourcePoint" />
            <Array as="points">
              <mxPoint x="176" y="600" />
            </Array>
            <mxPoint x="339" y="600.5" as="targetPoint" />
          </mxGeometry>
        </mxCell>
        <mxCell id="AS-EcxfXXqusSmhKvg41-38" value="" style="endArrow=classic;html=1;rounded=0;" edge="1" parent="1">
          <mxGeometry width="50" height="50" relative="1" as="geometry">
            <mxPoint x="352" y="611" as="sourcePoint" />
            <mxPoint x="444.5" y="611" as="targetPoint" />
          </mxGeometry>
        </mxCell>
        <mxCell id="AS-EcxfXXqusSmhKvg41-40" value="End thread" style="text;html=1;align=center;verticalAlign=middle;resizable=0;points=[];autosize=1;strokeColor=none;fillColor=none;" vertex="1" parent="1">
          <mxGeometry x="356" y="584" width="80" height="30" as="geometry" />
        </mxCell>
        <mxCell id="AS-EcxfXXqusSmhKvg41-41" value="Game finish&amp;nbsp;" style="html=1;verticalAlign=bottom;endArrow=block;edgeStyle=elbowEdgeStyle;elbow=horizontal;curved=0;rounded=0;" edge="1" parent="1">
          <mxGeometry relative="1" as="geometry">
            <mxPoint x="458.5" y="620" as="sourcePoint" />
            <Array as="points">
              <mxPoint x="538.5" y="620" />
            </Array>
            <mxPoint x="701.5" y="620.5" as="targetPoint" />
          </mxGeometry>
        </mxCell>
        <mxCell id="AS-EcxfXXqusSmhKvg41-42" value="Close connection" style="html=1;verticalAlign=bottom;endArrow=block;edgeStyle=elbowEdgeStyle;elbow=horizontal;curved=0;rounded=0;" edge="1" parent="1">
          <mxGeometry relative="1" as="geometry">
            <mxPoint x="458.5" y="640" as="sourcePoint" />
            <Array as="points">
              <mxPoint x="538.5" y="640" />
            </Array>
            <mxPoint x="701.5" y="640.5" as="targetPoint" />
          </mxGeometry>
        </mxCell>
        <mxCell id="AS-EcxfXXqusSmhKvg41-43" value="Game finish" style="html=1;verticalAlign=bottom;endArrow=block;edgeStyle=elbowEdgeStyle;elbow=vertical;curved=0;rounded=0;" edge="1" parent="1">
          <mxGeometry relative="1" as="geometry">
            <mxPoint x="440" y="620" as="sourcePoint" />
            <Array as="points">
              <mxPoint x="189" y="620" />
            </Array>
            <mxPoint x="94" y="620" as="targetPoint" />
          </mxGeometry>
        </mxCell>
        <mxCell id="AS-EcxfXXqusSmhKvg41-44" value="Close connection" style="html=1;verticalAlign=bottom;endArrow=block;edgeStyle=elbowEdgeStyle;elbow=vertical;curved=0;rounded=0;" edge="1" parent="1">
          <mxGeometry relative="1" as="geometry">
            <mxPoint x="440" y="640" as="sourcePoint" />
            <Array as="points">
              <mxPoint x="191" y="640" />
            </Array>
            <mxPoint x="96" y="640" as="targetPoint" />
          </mxGeometry>
        </mxCell>
        <mxCell id="AS-EcxfXXqusSmhKvg41-45" value="Add card" style="html=1;verticalAlign=bottom;endArrow=block;edgeStyle=elbowEdgeStyle;elbow=vertical;curved=0;rounded=0;" edge="1" parent="1">
          <mxGeometry relative="1" as="geometry">
            <mxPoint x="706" y="840" as="sourcePoint" />
            <Array as="points">
              <mxPoint x="558" y="840" />
            </Array>
            <mxPoint x="347" y="840" as="targetPoint" />
          </mxGeometry>
        </mxCell>
        <mxCell id="AS-EcxfXXqusSmhKvg41-46" value="Request executed&amp;nbsp; /&amp;nbsp; Error" style="html=1;verticalAlign=bottom;endArrow=block;edgeStyle=elbowEdgeStyle;elbow=horizontal;curved=0;rounded=0;" edge="1" parent="1">
          <mxGeometry relative="1" as="geometry">
            <mxPoint x="352" y="880" as="sourcePoint" />
            <Array as="points">
              <mxPoint x="432" y="880" />
            </Array>
            <mxPoint x="702" y="880" as="targetPoint" />
          </mxGeometry>
        </mxCell>
        <mxCell id="AS-EcxfXXqusSmhKvg41-47" value="Request executed&amp;nbsp; /&amp;nbsp; Error" style="html=1;verticalAlign=bottom;endArrow=block;edgeStyle=elbowEdgeStyle;elbow=horizontal;curved=0;rounded=0;" edge="1" parent="1">
          <mxGeometry relative="1" as="geometry">
            <mxPoint x="353" y="960" as="sourcePoint" />
            <Array as="points">
              <mxPoint x="433" y="960" />
            </Array>
            <mxPoint x="703" y="960" as="targetPoint" />
          </mxGeometry>
        </mxCell>
        <mxCell id="AS-EcxfXXqusSmhKvg41-48" value="Pass turn" style="html=1;verticalAlign=bottom;endArrow=block;edgeStyle=elbowEdgeStyle;elbow=vertical;curved=0;rounded=0;" edge="1" parent="1">
          <mxGeometry relative="1" as="geometry">
            <mxPoint x="706.5" y="920" as="sourcePoint" />
            <Array as="points">
              <mxPoint x="558.5" y="920" />
            </Array>
            <mxPoint x="347.5" y="920" as="targetPoint" />
          </mxGeometry>
        </mxCell>
        <mxCell id="AS-EcxfXXqusSmhKvg41-50" value="Disconnect" style="html=1;verticalAlign=bottom;endArrow=block;edgeStyle=elbowEdgeStyle;elbow=vertical;curved=0;rounded=0;" edge="1" parent="1">
          <mxGeometry relative="1" as="geometry">
            <mxPoint x="707" y="1000" as="sourcePoint" />
            <Array as="points">
              <mxPoint x="559" y="1000" />
            </Array>
            <mxPoint x="348" y="1000" as="targetPoint" />
          </mxGeometry>
        </mxCell>
        <mxCell id="AS-EcxfXXqusSmhKvg41-51" value="" style="endArrow=classic;html=1;rounded=0;" edge="1" parent="1">
          <mxGeometry width="50" height="50" relative="1" as="geometry">
            <mxPoint x="347" y="1020" as="sourcePoint" />
            <mxPoint x="446.5" y="1020" as="targetPoint" />
          </mxGeometry>
        </mxCell>
        <mxCell id="AS-EcxfXXqusSmhKvg41-52" value="End thread" style="text;html=1;align=center;verticalAlign=middle;resizable=0;points=[];autosize=1;strokeColor=none;fillColor=none;" vertex="1" parent="1">
          <mxGeometry x="353" y="995" width="80" height="30" as="geometry" />
        </mxCell>
        <mxCell id="AS-EcxfXXqusSmhKvg41-54" value="Game finish&amp;nbsp;" style="html=1;verticalAlign=bottom;endArrow=block;edgeStyle=elbowEdgeStyle;elbow=horizontal;curved=0;rounded=0;" edge="1" parent="1">
          <mxGeometry relative="1" as="geometry">
            <mxPoint x="458.5" y="1030" as="sourcePoint" />
            <Array as="points">
              <mxPoint x="538.5" y="1030" />
            </Array>
            <mxPoint x="701.5" y="1030.5" as="targetPoint" />
          </mxGeometry>
        </mxCell>
        <mxCell id="AS-EcxfXXqusSmhKvg41-55" value="Close connection" style="html=1;verticalAlign=bottom;endArrow=block;edgeStyle=elbowEdgeStyle;elbow=horizontal;curved=0;rounded=0;" edge="1" parent="1">
          <mxGeometry relative="1" as="geometry">
            <mxPoint x="458.5" y="1050" as="sourcePoint" />
            <Array as="points">
              <mxPoint x="538.5" y="1050" />
            </Array>
            <mxPoint x="701.5" y="1050.5" as="targetPoint" />
          </mxGeometry>
        </mxCell>
        <mxCell id="AS-EcxfXXqusSmhKvg41-56" value="Close connection" style="html=1;verticalAlign=bottom;endArrow=block;edgeStyle=elbowEdgeStyle;elbow=vertical;curved=0;rounded=0;" edge="1" parent="1">
          <mxGeometry relative="1" as="geometry">
            <mxPoint x="443" y="1050" as="sourcePoint" />
            <Array as="points">
              <mxPoint x="191" y="1050" />
            </Array>
            <mxPoint x="96" y="1050" as="targetPoint" />
          </mxGeometry>
        </mxCell>
        <mxCell id="AS-EcxfXXqusSmhKvg41-57" value="Game finish" style="html=1;verticalAlign=bottom;endArrow=block;edgeStyle=elbowEdgeStyle;elbow=vertical;curved=0;rounded=0;" edge="1" parent="1">
          <mxGeometry relative="1" as="geometry">
            <mxPoint x="444" y="1030" as="sourcePoint" />
            <Array as="points">
              <mxPoint x="190" y="1030" />
            </Array>
            <mxPoint x="95" y="1030" as="targetPoint" />
          </mxGeometry>
        </mxCell>
      </root>
    </mxGraphModel>
  </diagram>
</mxfile>
